<svg class="{{ class }}" height="{{ height }}" viewBox="0 0 52.003 45.758" xmlns="http://www.w3.org/2000/svg"><g transform="translate(116.001 -3595.995)"><path d="M42.369,35.751l-.215-.224A11.692,11.692,0,0,0,26.98,34.2l3.069,9.251L21.46,49.181l4.295,11.452L12.87,47.75l8.589-5.726L18.9,34.284A11.681,11.681,0,0,0,3.628,35.537l-.215.215a12.3,12.3,0,0,0-.653,16.3L21.737,71.612a1.594,1.594,0,0,0,2.3,0L43.023,52.044a12.285,12.285,0,0,0-.653-16.293Z" transform="translate(-111.798 3568.652)" fill="currentColor"/><path data-name="heart-broken-solid" d="M46.244,36.093l-.234-.244A12.761,12.761,0,0,0,29.448,34.4L32.8,44.5l-9.374,6.25,4.687,12.5L14.048,49.188l9.374-6.25L20.63,34.492A12.749,12.749,0,0,0,3.961,35.859l-.234.234a13.42,13.42,0,0,0-.713,17.792L23.725,75.231a1.74,1.74,0,0,0,2.51,0L46.957,53.875a13.408,13.408,0,0,0-.713-17.782Z" transform="translate(-114.985 3564.988)" fill="none" stroke-width="2"/></g></svg>
