<svg class="bi {{ class }}" height="{{ height }}" style="{{ style }}" viewBox="0 0 40 40" xmlns="http://www.w3.org/2000/svg"><g transform="translate(-359 -81)"><rect data-name="Rectangle 31" width="40" height="40" rx="10" transform="translate(359 81)" fill="currentColor"/><g transform="translate(367 89)"><path d="M12,22.5A10.5,10.5,0,1,0,1.5,12,10.5,10.5,0,0,0,12,22.5ZM12,24A12,12,0,1,0,0,12,12,12,0,0,0,12,24Z" fill="{{ inner }}" stroke="{{ inner }}" stroke-width="1" fill-rule="evenodd"/><path d="M14.412,5.082a1.125,1.125,0,1,1,1.607,1.575l-5.988,7.485a1.125,1.125,0,0,1-1.62.03L4.443,10.2a1.125,1.125,0,1,1,1.59-1.59l3.141,3.14,5.209-6.638a.354.354,0,0,1,.03-.033Z" transform="translate(2.043 2.373)" fill="{{ inner }}" fill-rule="evenodd"/></g></g></svg>
