<svg class="{{ class }}" height="{{ height }}" viewBox="0 0 100 100" xmlns="http://www.w3.org/2000/svg"><g transform="translate(-334 -219)"><rect width="100" height="100" rx="10" transform="translate(334 219)" fill="currentColor"/><g transform="translate(363 248)"><path d="M0,6.687A4.687,4.687,0,0,1,4.687,2H32.813A4.687,4.687,0,0,1,37.5,6.688V28.562H34.375V6.687a1.562,1.562,0,0,0-1.562-1.562H4.687A1.562,1.562,0,0,0,3.125,6.687V28.562a1.563,1.563,0,0,0,1.562,1.563V33.25A4.687,4.687,0,0,1,0,28.562ZM14.062,30.125h18.75V33.25H14.062Z" fill="#FCFAFA" stroke="#FCFAFA" stroke-width="0.5" fill-rule="evenodd"/><path d="M32.25,5h6.313a4.688,4.688,0,0,1,3.656,1.759l4.628,5.781a4.687,4.687,0,0,1,1.028,2.931v6.716a4.687,4.687,0,0,1-4.687,4.687H40.062V23.75h3.125a1.563,1.563,0,0,0,1.563-1.562V15.469a1.562,1.562,0,0,0-.344-.975L39.781,8.713a1.562,1.562,0,0,0-1.219-.587H35.375V22.188H32.25Zm-25,25a3.125,3.125,0,1,0-3.125-3.125A3.125,3.125,0,0,0,7.25,30Zm0,3.125A6.25,6.25,0,1,0,1,26.875,6.25,6.25,0,0,0,7.25,33.125Z" transform="translate(2.125 6.375)" fill="#FCFAFA" stroke="#FCFAFA" stroke-width="0.5" fill-rule="evenodd"/><path d="M16.25,19.375a3.125,3.125,0,1,0-3.125-3.125A3.125,3.125,0,0,0,16.25,19.375Zm0,3.125A6.25,6.25,0,1,0,10,16.25,6.25,6.25,0,0,0,16.25,22.5Z" transform="translate(21.25 17)" fill="#FCFAFA" stroke="#FCFAFA" stroke-width="0.5" fill-rule="evenodd"/></g></g></svg>
