<svg class="bi {{ class }}" height="{{ height }}" viewBox="0 0 448 512" xmlns="http://www.w3.org/2000/svg"><path d="M224.1,146C287.7,146 334,192.3 334,255.9C334,319.5 287.7,365.8 224.1,365.8C160.5,365.8 114.2,319.5 114.2,255.9C114.2,192.3 160.5,146 224.1,146ZM224.1,335.6C265.2,335.6 303.8,297.1 303.8,255.9C303.8,214.7 265.3,176.2 224.1,176.2C182.9,176.2 144.4,214.7 144.4,255.9C144.4,297.1 183,335.6 224.1,335.6ZM365.5,136.3C365.5,121.5 358.5,114.5 343.7,114.5C328.9,114.5 321.9,121.5 321.9,136.3C321.9,151.1 328.8,158.1 343.7,158.1C358.5,158.1 365.5,151.2 365.5,136.3ZM441.6,163.5C443.7,200.5 443.7,311.3 441.6,348.3C439.8,384.2 434.6,411 408.4,437.2C382.2,463.5 352.4,471.7 316.5,473.4C279.5,475.5 168.6,475.5 131.6,473.4C95.7,471.6 66,463.4 39.7,437.2C13.4,411 8.2,384.2 6.5,348.3C4.4,311.3 4.4,200.4 6.5,163.4C8.3,127.5 13.4,100.7 39.7,74.5C66,48.3 95.8,40.1 131.6,38.4C168.6,36.3 279.5,36.3 316.5,38.4C352.4,40.2 382.2,48.4 408.4,74.6C434.7,100.8 439.9,127.6 441.6,163.5ZM403.8,388C415.5,358.6 412.8,288.5 412.8,255.9C412.8,223.3 415.5,153.3 403.8,123.8C395.9,104.1 375.8,84 356.2,76.2C326.8,64.6 256.7,67.2 224.1,67.2C191.5,67.2 121.5,64.5 92,76.2C72.3,84.1 52.2,104.2 44.4,123.8C32.8,153.2 35.4,223.3 35.4,255.9C35.4,288.5 32.7,358.5 44.4,388C52.3,407.7 72.4,427.8 92,435.6C121.4,447.2 191.5,444.6 224.1,444.6C256.7,444.6 326.7,447.3 356.2,435.6C375.9,427.7 396,407.6 403.8,388Z" fill="currentColor"/></svg>
