<svg class="{{ class }}" height="{{ height }}" style="{{ style }}" viewBox="0 0 18.65 47.633" xmlns="http://www.w3.org/2000/svg"><g transform="translate(-196.85 -781.267)"><path d="M7.738-3A5.158,5.158,0,1,1,2.579,2.158,5.158,5.158,0,0,1,7.738-3m3.869,14.432h-.916a7.084,7.084,0,0,1-5.906,0H3.869A3.869,3.869,0,0,0,0,15.3V26.262A1.934,1.934,0,0,0,1.934,28.2h1.29V39.159a1.934,1.934,0,0,0,1.934,1.934h5.158a1.934,1.934,0,0,0,1.934-1.934V28.2h1.29a1.934,1.934,0,0,0,1.934-1.934V15.3A3.869,3.869,0,0,0,11.607,11.432Z" transform="translate(199.125 786.907)" fill="#4e7714"/><path data-name="male-solid" d="M8.425-1A5.617,5.617,0,1,1,2.808,4.617,5.617,5.617,0,0,1,8.425-1m4.213,13.537h-1a7.713,7.713,0,0,1-6.431,0h-1A4.213,4.213,0,0,0,0,16.749V28.685a2.106,2.106,0,0,0,2.106,2.106h1.4V42.727a2.106,2.106,0,0,0,2.106,2.106h5.617a2.106,2.106,0,0,0,2.106-2.106V30.791h1.4a2.106,2.106,0,0,0,2.106-2.106V16.749A4.213,4.213,0,0,0,12.638,12.537Z" transform="translate(197.75 783.167)" fill="none" stroke="currentColor" stroke-width="1.8"/></g></svg>
