<svg class="bi {{ class }}" height="{{ height }}" style="{{ style }}" viewBox="0 0 15.014 17.336" xmlns="http://www.w3.org/2000/svg"><g transform="translate(-1.487 0.501)"><path d="M14.634,7.49A5.833,5.833,0,0,0,6.348,3.8a.584.584,0,1,1-.53-1.041,7,7,0,1,1-3.182,3.32A.584.584,0,1,1,3.7,6.57a5.833,5.833,0,1,0,10.937.92Z" transform="translate(0 0.333)" stroke="currentColor" stroke-width="1" fill="currentColor" fill-rule="evenodd"/><path d="M8.413.17a.583.583,0,0,0-.826,0L4.67,3.087a.583.583,0,0,0,0,.826L7.587,6.829A.584.584,0,0,0,8.413,6l-2.5-2.5L8.413,1a.583.583,0,0,0,0-.826Z" transform="translate(0.416 0)" stroke="currentColor" stroke-width="0.5" fill="currentColor" fill-rule="evenodd"/></g></svg>
