<svg class="bi bi-search {{ class }}" height="{{ height }}" style="{{ style }}" viewBox="0 0 25.251 25.25" xmlns="http://www.w3.org/2000/svg"><g transform="translate(0.25 0.25)"><path id="Path_183" data-name="Path 183" d="M10.606,10.607a1.563,1.563,0,0,1,2.211,0l6.016,6.016a1.563,1.563,0,1,1-2.209,2.211l-6.016-6.016a1.563,1.563,0,0,1,0-2.211Z" transform="translate(5.71 5.709)" fill="currentColor" fill-rule="evenodd"/><path d="M10.156,18.75a8.594,8.594,0,1,0-8.594-8.594,8.594,8.594,0,0,0,8.594,8.594Zm10.156-8.594A10.156,10.156,0,1,1,10.156,0,10.156,10.156,0,0,1,20.313,10.156Z" fill="currentColor" stroke="currentColor" stroke-width="0.5" fill-rule="evenodd"/></g></svg>
