<svg class="bi {{ class }}" height="{{ height }}" viewBox="0 0 60.393 47.248" xmlns="http://www.w3.org/2000/svg"><g transform="translate(1 1)"><path d="M22.926,57.714V69.776a1.32,1.32,0,0,0,1.291,1.34h-.129a1.32,1.32,0,0,0,1.291-1.34V57.714C20.254,57.765,22.926,57.714,22.926,57.714Z" transform="translate(8.465 -24.868)" fill="currentColor"/><path d="M6.3,38.3H0A22.045,22.045,0,0,0,22.044,60.342c6.286-.026.018.082,6.3,0A22.045,22.045,0,0,0,6.3,38.3ZM44.087,32A22.025,22.025,0,0,0,24.829,43.337a25.23,25.23,0,0,1,5.806,10.589A22.051,22.051,0,0,0,50.385,32Z" transform="translate(5.007 -27.491)" fill="#7fc6a4"/><path d="M7.3,39.3H0A25.549,25.549,0,0,0,25.547,64.846c7.285-.03.021.095,7.3,0A25.549,25.549,0,0,0,7.3,39.3ZM51.094,32A25.526,25.526,0,0,0,28.774,45.138,29.239,29.239,0,0,1,35.5,57.41,25.555,25.555,0,0,0,58.393,32Z" transform="translate(0 -32)" fill="none" stroke="currentColor" stroke-width="2"/></g></svg>
