<svg class="bi {{ class }}" height="{{ height }}" viewBox="0 0 46.833 46.833" xmlns="http://www.w3.org/2000/svg"><g transform="translate(0.5 0.5)"><g transform="translate(14.667 9.167)"><path d="M14.5,5.751A4.751,4.751,0,1,1,9.751,1,4.751,4.751,0,0,1,14.5,5.751Z" transform="translate(-0.278 0.877)" fill="#7fc6a4"/><path d="M16.379,6.69A5.69,5.69,0,1,1,10.69,1a5.69,5.69,0,0,1,5.69,5.69Z" transform="translate(-2.155 -1)" fill="none" stroke="currentColor" stroke-width="2"/><path d="M7.5,4H9.4V15.679c0,.358-.425.649-.948.649s-.948-.29-.948-.649Z" transform="translate(0.086 7.379)" fill="currentColor"/><path d="M9.169,12.451a.948.948,0,0,1-.726,1.127,7.787,7.787,0,0,0-2.439.9c-.573.364-.607.609-.607.643s.009.161.277.4A4.3,4.3,0,0,0,7,16.238a14.905,14.905,0,0,0,5.032.774,14.905,14.905,0,0,0,5.032-.774,4.363,4.363,0,0,0,1.329-.724c.266-.237.277-.374.277-.4s-.034-.279-.607-.643a7.74,7.74,0,0,0-2.439-.9.948.948,0,1,1,.4-1.853,9.584,9.584,0,0,1,3.053,1.149,2.768,2.768,0,0,1,1.487,2.242,2.447,2.447,0,0,1-.916,1.817,6.1,6.1,0,0,1-1.921,1.081,16.75,16.75,0,0,1-5.7.9,16.807,16.807,0,0,1-5.7-.893,6.138,6.138,0,0,1-1.921-1.083A2.447,2.447,0,0,1,3.5,15.116a2.77,2.77,0,0,1,1.485-2.242A9.551,9.551,0,0,1,8.04,11.725a.948.948,0,0,1,1.128.726Z" transform="translate(-3.5 8.591)" fill="currentColor" fill-rule="evenodd"/></g><path d="M4.3,2.865A1.432,1.432,0,0,0,2.865,4.3v8.594a1.432,1.432,0,1,1-2.865,0V4.3A4.3,4.3,0,0,1,4.3,0h8.594a1.432,1.432,0,1,1,0,2.865ZM31.51,1.432A1.432,1.432,0,0,1,32.943,0h8.594a4.3,4.3,0,0,1,4.3,4.3v8.594a1.432,1.432,0,0,1-2.865,0V4.3a1.432,1.432,0,0,0-1.432-1.432H32.943A1.432,1.432,0,0,1,31.51,1.432ZM1.432,31.51a1.432,1.432,0,0,1,1.432,1.432v8.594A1.432,1.432,0,0,0,4.3,42.969h8.594a1.432,1.432,0,0,1,0,2.865H4.3a4.3,4.3,0,0,1-4.3-4.3V32.943A1.432,1.432,0,0,1,1.432,31.51Zm42.969,0a1.432,1.432,0,0,1,1.432,1.432v8.594a4.3,4.3,0,0,1-4.3,4.3H32.943a1.432,1.432,0,0,1,0-2.865h8.594a1.432,1.432,0,0,0,1.432-1.432V32.943A1.432,1.432,0,0,1,44.4,31.51Z" transform="translate(0 0)" fill="currentColor" stroke="{{ border }}" stroke-width="1" fill-rule="evenodd"/></g></svg>
